<svg width="68" height="74" viewBox="0 0 68 74" fill="none" xmlns="http://www.w3.org/2000/svg">
<path d="M0 3C0 1.34315 1.34315 0 3 0H65C66.6569 0 68 1.34315 68 3V51H0V3Z" fill="url(#paint0_linear_8_39)"/>
<rect y="50" width="68" height="24" fill="#F18238"/>
<path d="M22.7131 66H20.2989V58.5426H22.7896C23.5203 58.5426 24.1478 58.6919 24.6721 58.9905C25.1965 59.2867 25.5982 59.7127 25.8774 60.2686C26.159 60.8221 26.2998 61.486 26.2998 62.2604C26.2998 63.0372 26.1578 63.7048 25.8738 64.2631C25.5922 64.8214 25.1843 65.2511 24.6503 65.5521C24.1162 65.8507 23.4705 66 22.7131 66ZM21.4241 65.0168H22.6512C23.2193 65.0168 23.6914 64.91 24.0677 64.6964C24.4439 64.4804 24.7255 64.1684 24.9125 63.7606C25.0994 63.3503 25.1928 62.8503 25.1928 62.2604C25.1928 61.6754 25.0994 61.1789 24.9125 60.7711C24.728 60.3633 24.4524 60.0538 24.0859 59.8426C23.7193 59.6314 23.2642 59.5258 22.7204 59.5258H21.4241V65.0168ZM27.6116 66V60.407H28.7003V66H27.6116ZM28.1614 59.544C27.9721 59.544 27.8094 59.4809 27.6735 59.3546C27.54 59.226 27.4732 59.073 27.4732 58.8958C27.4732 58.7162 27.54 58.5633 27.6735 58.437C27.8094 58.3084 27.9721 58.244 28.1614 58.244C28.3508 58.244 28.5122 58.3084 28.6457 58.437C28.7816 58.5633 28.8496 58.7162 28.8496 58.8958C28.8496 59.073 28.7816 59.226 28.6457 59.3546C28.5122 59.4809 28.3508 59.544 28.1614 59.544ZM32.5756 66.1129C32.0245 66.1129 31.5499 65.9951 31.1518 65.7597C30.7561 65.5218 30.4503 65.188 30.2342 64.7583C30.0206 64.3262 29.9138 63.8201 29.9138 63.2399C29.9138 62.667 30.0206 62.1621 30.2342 61.7251C30.4503 61.2882 30.7513 60.9471 31.1373 60.7019C31.5257 60.4567 31.9796 60.3341 32.4991 60.3341C32.8147 60.3341 33.1206 60.3863 33.4167 60.4907C33.7129 60.5951 33.9787 60.759 34.2142 60.9823C34.4496 61.2056 34.6353 61.4957 34.7713 61.8526C34.9072 62.207 34.9752 62.6379 34.9752 63.1452V63.5312H30.5292V62.7155H33.9083C33.9083 62.4291 33.85 62.1754 33.7335 61.9545C33.617 61.7312 33.4531 61.5552 33.2419 61.4265C33.0332 61.2979 32.788 61.2335 32.5064 61.2335C32.2005 61.2335 31.9335 61.3088 31.7053 61.4593C31.4795 61.6074 31.3048 61.8016 31.181 62.0419C31.0596 62.2798 30.9989 62.5383 30.9989 62.8175V63.4547C30.9989 63.8286 31.0644 64.1466 31.1955 64.4088C31.329 64.6709 31.5147 64.8712 31.7526 65.0096C31.9905 65.1455 32.2685 65.2135 32.5865 65.2135C32.7928 65.2135 32.981 65.1843 33.1509 65.1261C33.3208 65.0654 33.4677 64.9756 33.5915 64.8566C33.7153 64.7377 33.81 64.5908 33.8755 64.416L34.906 64.6017C34.8235 64.9052 34.6754 65.171 34.4618 65.3992C34.2506 65.6249 33.9848 65.8009 33.6643 65.9272C33.3463 66.051 32.9834 66.1129 32.5756 66.1129ZM40.3743 61.7725L39.3875 61.9472C39.3463 61.821 39.2807 61.7008 39.1909 61.5867C39.1035 61.4727 38.9846 61.3792 38.8341 61.3064C38.6835 61.2335 38.4954 61.1971 38.2697 61.1971C37.9614 61.1971 37.704 61.2663 37.4977 61.4047C37.2914 61.5406 37.1882 61.7166 37.1882 61.9327C37.1882 62.1196 37.2574 62.2701 37.3957 62.3842C37.5341 62.4983 37.7574 62.5917 38.0657 62.6646L38.9542 62.8685C39.4689 62.9874 39.8524 63.1707 40.1049 63.4183C40.3573 63.6659 40.4836 63.9876 40.4836 64.3833C40.4836 64.7183 40.3865 65.0168 40.1923 65.279C40.0005 65.5388 39.7322 65.7427 39.3875 65.8908C39.0453 66.0388 38.6484 66.1129 38.1968 66.1129C37.5705 66.1129 37.0595 65.9794 36.6638 65.7123C36.2682 65.4429 36.0254 65.0605 35.9356 64.5653L36.9879 64.4051C37.0535 64.6794 37.1882 64.887 37.3921 65.0278C37.596 65.1661 37.8618 65.2353 38.1895 65.2353C38.5464 65.2353 38.8316 65.1613 39.0453 65.0132C39.2589 64.8627 39.3657 64.6794 39.3657 64.4634C39.3657 64.2886 39.3001 64.1417 39.1691 64.0228C39.0404 63.9038 38.8426 63.814 38.5755 63.7533L37.6288 63.5458C37.1069 63.4268 36.7209 63.2375 36.4709 62.9777C36.2232 62.718 36.0994 62.389 36.0994 61.9909C36.0994 61.6608 36.1917 61.3719 36.3762 61.1243C36.5607 60.8767 36.8156 60.6837 37.1409 60.5453C37.4661 60.4045 37.8388 60.3341 38.2587 60.3341C38.8632 60.3341 39.339 60.4652 39.6861 60.7274C40.0333 60.9871 40.2627 61.3355 40.3743 61.7725ZM44.0912 66.1129C43.5401 66.1129 43.0656 65.9951 42.6674 65.7597C42.2717 65.5218 41.9659 65.188 41.7498 64.7583C41.5362 64.3262 41.4294 63.8201 41.4294 63.2399C41.4294 62.667 41.5362 62.1621 41.7498 61.7251C41.9659 61.2882 42.2669 60.9471 42.6529 60.7019C43.0413 60.4567 43.4952 60.3341 44.0147 60.3341C44.3303 60.3341 44.6362 60.3863 44.9323 60.4907C45.2285 60.5951 45.4943 60.759 45.7298 60.9823C45.9652 61.2056 46.1509 61.4957 46.2869 61.8526C46.4228 62.207 46.4908 62.6379 46.4908 63.1452V63.5312H42.0448V62.7155H45.4239C45.4239 62.4291 45.3656 62.1754 45.2491 61.9545C45.1326 61.7312 44.9687 61.5552 44.7575 61.4265C44.5488 61.2979 44.3036 61.2335 44.022 61.2335C43.7161 61.2335 43.4491 61.3088 43.2209 61.4593C42.9952 61.6074 42.8204 61.8016 42.6966 62.0419C42.5752 62.2798 42.5145 62.5383 42.5145 62.8175V63.4547C42.5145 63.8286 42.58 64.1466 42.7111 64.4088C42.8446 64.6709 43.0304 64.8712 43.2682 65.0096C43.5061 65.1455 43.7841 65.2135 44.1021 65.2135C44.3084 65.2135 44.4966 65.1843 44.6665 65.1261C44.8364 65.0654 44.9833 64.9756 45.1071 64.8566C45.2309 64.7377 45.3256 64.5908 45.3911 64.416L46.4216 64.6017C46.3391 64.9052 46.191 65.171 45.9774 65.3992C45.7662 65.6249 45.5004 65.8009 45.1799 65.9272C44.8619 66.051 44.499 66.1129 44.0912 66.1129ZM48.7875 58.5426V66H47.6988V58.5426H48.7875Z" fill="white"/>
<path d="M25.5354 6H41.5039C41.9112 6 42.3017 6.16177 42.5897 6.44972C42.8776 6.73767 43.0394 7.12821 43.0394 7.53543V45H24V7.53543C24 7.12821 24.1618 6.73767 24.4497 6.44972C24.7377 6.16177 25.1282 6 25.5354 6Z" fill="#FCFCFC"/>
<path d="M41.5039 6H36.8976C37.3048 6 37.6953 6.16177 37.9833 6.44972C38.2712 6.73767 38.433 7.12821 38.433 7.53543V45H43.0393V7.53543C43.0393 7.12821 42.8775 6.73767 42.5896 6.44972C42.3016 6.16177 41.9111 6 41.5039 6Z" fill="#F7F1F1"/>
<path d="M29.2204 10.861H37.8189C38.0174 10.861 38.1783 11.022 38.1783 11.2205V16.7481C38.1783 16.9466 38.0174 17.1075 37.8189 17.1075H29.2204C29.0219 17.1075 28.861 16.9466 28.861 16.7481V11.2205C28.861 11.022 29.0219 10.861 29.2204 10.861Z" fill="white" stroke="#737373" stroke-width="0.50942"/>
<path d="M33.5197 27.4273C33.5934 27.5149 33.6857 27.6257 33.7913 27.7554C34.0704 28.0982 34.442 28.5714 34.8131 29.094C35.1849 29.6176 35.5525 30.1858 35.8262 30.7192C36.1037 31.2602 36.2664 31.7313 36.2672 32.073C36.252 32.7911 35.9562 33.4747 35.4432 33.9775C34.9295 34.4809 34.2389 34.7629 33.5197 34.7629C32.8005 34.7629 32.1099 34.4809 31.5962 33.9775C31.0832 33.4747 30.7874 32.7911 30.7722 32.073C30.773 31.7313 30.9356 31.2602 31.2132 30.7192C31.4869 30.1858 31.8545 29.6176 32.2263 29.094C32.5973 28.5714 32.969 28.0982 33.2481 27.7554C33.3537 27.6257 33.4459 27.5149 33.5197 27.4273Z" fill="#FFE966" stroke="#686767" stroke-width="0.50942"/>
<path d="M33.5197 27.4273C33.5935 27.5149 33.6857 27.6257 33.7913 27.7554C34.0704 28.0982 34.442 28.5714 34.8131 29.094C35.1849 29.6176 35.5525 30.1858 35.8262 30.7192C36.104 31.2608 36.2668 31.7324 36.2672 32.0741C36.2592 32.7941 35.9658 33.4814 35.4514 33.9852C34.9366 34.4893 34.2427 34.7683 33.5223 34.7608L33.5195 34.7608C33.3606 34.7609 33.2023 34.7475 33.0464 34.7208C33.3883 34.4937 33.685 34.2016 33.9185 33.8591C34.2767 33.3335 34.47 32.7129 34.4735 32.0769H34.4735V32.0755C34.4735 31.5352 34.1919 30.8658 33.8337 30.2201C33.5013 29.6208 33.0811 29.0049 32.6863 28.4692C32.9483 28.1248 33.1892 27.8258 33.3718 27.6048C33.4268 27.5382 33.4764 27.4788 33.5197 27.4273Z" fill="#FFE236" stroke="#686767" stroke-width="0.50942"/>
<line x1="43" y1="20.25" x2="24" y2="20.25" stroke="black" stroke-width="0.5"/>
<defs>
<linearGradient id="paint0_linear_8_39" x1="89.25" y1="66.5231" x2="77.2791" y2="-11.8099" gradientUnits="userSpaceOnUse">
<stop stop-color="#EA1A0A" stop-opacity="0.7"/>
<stop offset="1" stop-color="#F08719" stop-opacity="0.9"/>
</linearGradient>
</defs>
</svg>
