<svg width="68" height="74" viewBox="0 0 68 74" fill="none" xmlns="http://www.w3.org/2000/svg">
<path d="M0 3C0 1.34315 1.34315 0 3 0H65C66.6569 0 68 1.34315 68 3V51H0V3Z" fill="url(#paint0_linear_8_38)"/>
<rect y="50" width="68" height="24" fill="#F18238"/>
<path d="M29.3582 60.8985C29.2878 60.6776 29.1932 60.4798 29.0742 60.305C28.9577 60.1278 28.8181 59.9773 28.6555 59.8535C28.4928 59.7273 28.3071 59.6314 28.0984 59.5658C27.892 59.5003 27.665 59.4675 27.4174 59.4675C26.9975 59.4675 26.6188 59.5755 26.2813 59.7916C25.9439 60.0076 25.6769 60.3244 25.4803 60.742C25.2861 61.1571 25.189 61.6656 25.189 62.2677C25.189 62.8721 25.2873 63.3831 25.4839 63.8007C25.6805 64.2182 25.95 64.535 26.2923 64.751C26.6346 64.9671 27.0242 65.0751 27.4611 65.0751C27.8665 65.0751 28.2197 64.9926 28.5207 64.8275C28.8242 64.6624 29.0584 64.4294 29.2235 64.1284C29.391 63.8249 29.4748 63.4681 29.4748 63.0578L29.7661 63.1125H27.6323V62.1839H30.5635V63.0323C30.5635 63.6586 30.43 64.2024 30.163 64.6636C29.8984 65.1224 29.5318 65.4769 29.0633 65.7269C28.5972 65.9769 28.0632 66.102 27.4611 66.102C26.7863 66.102 26.194 65.9466 25.6842 65.6359C25.1768 65.3251 24.7811 64.8845 24.4971 64.3141C24.2131 63.7412 24.0711 63.0615 24.0711 62.275C24.0711 61.6802 24.1536 61.1461 24.3187 60.6728C24.4838 60.1994 24.7156 59.7977 25.0142 59.4675C25.3152 59.1349 25.6684 58.8813 26.0738 58.7065C26.4816 58.5293 26.9271 58.4407 27.4102 58.4407C27.8131 58.4407 28.1882 58.5001 28.5353 58.6191C28.8849 58.738 29.1956 58.9068 29.4675 59.1252C29.7418 59.3437 29.9688 59.6035 30.1484 59.9045C30.328 60.2031 30.4494 60.5344 30.5125 60.8985H29.3582ZM33.5321 66.1238C33.1777 66.1238 32.8572 66.0583 32.5708 65.9272C32.2843 65.7937 32.0574 65.6007 31.8899 65.3482C31.7248 65.0957 31.6423 64.7862 31.6423 64.4197C31.6423 64.1041 31.7029 63.8444 31.8243 63.6404C31.9457 63.4365 32.1096 63.2751 32.3159 63.1561C32.5222 63.0372 32.7528 62.9474 33.0077 62.8867C33.2626 62.826 33.5224 62.7799 33.787 62.7483C34.122 62.7095 34.3939 62.6779 34.6026 62.6536C34.8114 62.6269 34.9631 62.5845 35.0578 62.5262C35.1525 62.4679 35.1998 62.3733 35.1998 62.2422V62.2167C35.1998 61.8987 35.11 61.6523 34.9303 61.4775C34.7531 61.3027 34.4885 61.2153 34.1365 61.2153C33.77 61.2153 33.4811 61.2967 33.2699 61.4593C33.0611 61.6195 32.9167 61.7979 32.8366 61.9946L31.8134 61.7615C31.9348 61.4217 32.112 61.1474 32.345 60.9386C32.5805 60.7274 32.8512 60.5745 33.157 60.4798C33.4629 60.3827 33.7845 60.3341 34.122 60.3341C34.3453 60.3341 34.582 60.3608 34.832 60.4142C35.0845 60.4652 35.32 60.5599 35.5384 60.6983C35.7593 60.8366 35.9402 61.0345 36.081 61.2918C36.2218 61.5467 36.2922 61.8781 36.2922 62.2859V66H35.2289V65.2353H35.1852C35.1148 65.3761 35.0092 65.5145 34.8684 65.6504C34.7276 65.7864 34.5468 65.8993 34.3259 65.9891C34.105 66.0789 33.8404 66.1238 33.5321 66.1238ZM33.7688 65.2499C34.0698 65.2499 34.3271 65.1904 34.5407 65.0715C34.7568 64.9525 34.9206 64.7972 35.0323 64.6054C35.1464 64.4112 35.2034 64.2036 35.2034 63.9827V63.2617C35.1646 63.3006 35.0893 63.337 34.9777 63.371C34.8684 63.4025 34.7434 63.4305 34.6026 63.4547C34.4618 63.4766 34.3247 63.4972 34.1912 63.5166C34.0576 63.5336 33.946 63.5482 33.8562 63.5603C33.645 63.587 33.452 63.6319 33.2772 63.6951C33.1048 63.7582 32.9665 63.8492 32.8621 63.9682C32.7601 64.0847 32.7092 64.24 32.7092 64.4342C32.7092 64.7037 32.8087 64.9076 33.0077 65.046C33.2068 65.1819 33.4605 65.2499 33.7688 65.2499ZM41.9335 61.7725L40.9467 61.9472C40.9054 61.821 40.8399 61.7008 40.75 61.5867C40.6627 61.4727 40.5437 61.3792 40.3932 61.3064C40.2427 61.2335 40.0546 61.1971 39.8288 61.1971C39.5205 61.1971 39.2632 61.2663 39.0568 61.4047C38.8505 61.5406 38.7473 61.7166 38.7473 61.9327C38.7473 62.1196 38.8165 62.2701 38.9549 62.3842C39.0933 62.4983 39.3166 62.5917 39.6249 62.6646L40.5134 62.8685C41.028 62.9874 41.4116 63.1707 41.664 63.4183C41.9165 63.6659 42.0427 63.9876 42.0427 64.3833C42.0427 64.7183 41.9456 65.0168 41.7514 65.279C41.5596 65.5388 41.2914 65.7427 40.9467 65.8908C40.6044 66.0388 40.2075 66.1129 39.756 66.1129C39.1297 66.1129 38.6187 65.9794 38.223 65.7123C37.8273 65.4429 37.5845 65.0605 37.4947 64.5653L38.5471 64.4051C38.6126 64.6794 38.7473 64.887 38.9512 65.0278C39.1552 65.1661 39.421 65.2353 39.7487 65.2353C40.1055 65.2353 40.3908 65.1613 40.6044 65.0132C40.818 64.8627 40.9248 64.6794 40.9248 64.4634C40.9248 64.2886 40.8593 64.1417 40.7282 64.0228C40.5995 63.9038 40.4017 63.814 40.1347 63.7533L39.1879 63.5458C38.666 63.4268 38.28 63.2375 38.03 62.9777C37.7824 62.718 37.6586 62.389 37.6586 61.9909C37.6586 61.6608 37.7508 61.3719 37.9353 61.1243C38.1198 60.8767 38.3747 60.6837 38.7 60.5453C39.0253 60.4045 39.3979 60.3341 39.8179 60.3341C40.4223 60.3341 40.8981 60.4652 41.2453 60.7274C41.5924 60.9871 41.8218 61.3355 41.9335 61.7725Z" fill="white"/>
<path d="M38.6544 11.555H29.3455C28.7292 11.553 28.137 11.7945 27.6977 12.2268C27.2585 12.6592 27.0077 13.2476 27 13.8639V40.8524C27.001 41.1594 27.0624 41.4633 27.1808 41.7466C27.2992 42.0299 27.4722 42.2871 27.69 42.5036C27.9078 42.72 28.1661 42.8914 28.4502 43.0081C28.7342 43.1247 29.0385 43.1842 29.3455 43.1832H38.6544C38.9615 43.1842 39.2658 43.1247 39.5498 43.0081C39.8339 42.8914 40.0922 42.72 40.31 42.5036C40.5278 42.2871 40.7008 42.0299 40.8192 41.7466C40.9376 41.4633 40.999 41.1594 41 40.8524V13.8639C40.9923 13.2476 40.7415 12.6592 40.3023 12.2268C39.863 11.7945 39.2708 11.553 38.6544 11.555ZM35.1508 33.8157C33.5969 31.023 34.4178 27.5267 34 24.1476C33.0838 28.333 31.8524 30.5466 33.0471 34.4901C30.7309 34.6 28.7225 32.6356 29.1623 29.1026C29.4335 26.9037 30.8921 23.8764 32.0063 21.8387C32.6047 20.7147 33.2705 19.6279 34 18.5843C34.5871 19.8878 35.2504 21.1556 35.9864 22.3812C37.1079 24.3089 38.5665 26.1047 38.8377 27.3948C39.2702 29.5058 37.4597 32.0932 35.1508 33.8157ZM38.2 10.199H29.8V8H38.2V10.199Z" fill="#F9F9F9"/>
<defs>
<linearGradient id="paint0_linear_8_38" x1="89.25" y1="66.5231" x2="77.2791" y2="-11.8099" gradientUnits="userSpaceOnUse">
<stop stop-color="#EA1A0A" stop-opacity="0.7"/>
<stop offset="1" stop-color="#F08719" stop-opacity="0.9"/>
</linearGradient>
</defs>
</svg>
