<svg width="430" height="800" viewBox="0 0 430 800" fill="none" xmlns="http://www.w3.org/2000/svg">
<g clip-path="url(#clip0_8_84)">
<rect width="430" height="800" fill="white"/>
<rect width="430" height="800" fill="url(#paint0_linear_8_84)"/>
<path d="M245.473 272.608H259.265C265.823 272.608 271.044 277.049 271.044 282.42V289.427C271.044 294.797 265.823 299.239 259.265 299.239H245.473C238.914 299.239 233.693 294.797 233.693 289.427V282.42C233.693 277.049 238.914 272.608 245.473 272.608Z" stroke="white" stroke-width="0.610309"/>
<path d="M307.653 426.764V404.489H264.517L264.517 426.764L264.517 426.764M307.653 426.764L307.958 426.764C307.955 430.058 306.39 433.216 303.607 435.545C300.824 437.873 297.05 439.181 293.116 439.181H279.043C275.11 439.179 271.339 437.871 268.558 435.542C265.777 433.214 264.214 430.057 264.212 426.764H264.517M307.653 426.764C307.65 429.958 306.133 433.034 303.411 435.311C300.688 437.589 296.985 438.876 293.116 438.876H279.043C279.043 438.876 279.043 438.876 279.043 438.876C275.175 438.874 271.475 437.587 268.754 435.308C266.034 433.031 264.519 429.957 264.517 426.764M307.653 426.764L264.517 426.764M513.872 404.489V426.764C513.871 429.957 512.357 433.033 509.637 435.31C506.915 437.588 503.214 438.876 499.346 438.876H485.272C481.404 438.876 477.703 437.588 474.981 435.31C472.261 433.033 470.747 429.957 470.746 426.764V404.489H513.872Z" stroke="white" stroke-width="0.610309"/>
<path d="M264.517 404.489H307.653V418.512H264.517V404.489ZM513.872 404.489V418.512H470.746V404.489H513.872Z" stroke="white" stroke-width="0.610309"/>
<path d="M273.519 287.079L273.519 287.079C272.327 289.672 270.784 292.14 268.92 294.436C267.631 296.053 266.187 297.579 264.602 298.998L264.418 298.792L264.602 298.998C257.115 305.698 252.961 314.518 252.959 323.668V389.33C252.96 393.391 254.887 397.299 258.34 400.19C261.795 403.083 266.491 404.715 271.396 404.716H506.992C509.42 404.716 511.824 404.316 514.066 403.54C516.308 402.763 518.343 401.625 520.054 400.193C521.765 398.761 523.119 397.064 524.042 395.201C524.965 393.337 525.439 391.342 525.439 389.33V323.668C525.44 314.518 521.286 305.698 513.798 298.998C512.206 297.582 510.758 296.057 509.469 294.438C509.179 294.093 508.913 293.749 508.648 293.399L508.647 293.397C507.158 291.396 505.896 289.28 504.88 287.079L504.88 287.079L484.424 242.553C484.424 242.553 484.424 242.553 484.424 242.553C483.09 239.657 480.736 237.158 477.661 235.391C474.586 233.625 470.938 232.677 467.2 232.678H311.188H311.188C307.449 232.677 303.802 233.625 300.727 235.391C297.652 237.158 295.297 239.657 293.964 242.553L273.519 287.079ZM273.519 287.079L293.964 242.553L273.519 287.079Z" stroke="white" stroke-width="0.610309"/>
<path d="M471.854 404.717H305.924L327.329 384.977L327.134 384.766L327.329 384.977C329.331 383.13 331.775 381.652 334.506 380.639C337.238 379.627 340.193 379.103 343.183 379.103H435.065C438.095 379.103 441.089 379.641 443.85 380.679C446.611 381.718 449.074 383.234 451.077 385.123L471.854 404.717Z" stroke="white" stroke-width="0.610309"/>
<path d="M411.107 380.108C410.009 379.695 408.875 379.359 407.717 379.103H435.065C438.095 379.103 441.089 379.641 443.85 380.679C446.611 381.718 449.074 383.234 451.078 385.123L471.855 404.717H439.786L418.538 384.679L418.329 384.901L418.538 384.679C416.472 382.731 413.938 381.173 411.107 380.108Z" stroke="white" stroke-width="0.610309"/>
<path d="M318.317 339.146C318.317 346.451 311.223 352.461 302.353 352.461C293.483 352.461 286.389 346.451 286.389 339.146C286.389 331.84 293.483 325.83 302.353 325.83C311.223 325.83 318.317 331.84 318.317 339.146Z" stroke="white" stroke-width="0.610309"/>
<path d="M302.353 325.83H302.353C304.718 325.831 307.052 326.269 309.187 327.114C311.322 327.958 313.203 329.186 314.697 330.707C316.19 332.227 317.259 334.002 317.832 335.901C318.404 337.8 318.466 339.78 318.015 341.701C317.564 343.622 316.609 345.441 315.215 347.024C313.82 348.608 312.021 349.917 309.943 350.855C307.865 351.792 305.562 352.334 303.201 352.439C301.14 352.531 299.082 352.288 297.138 351.727C299.816 350.662 302.116 349.008 303.784 346.929C305.625 344.634 306.614 341.924 306.614 339.146C306.614 336.367 305.625 333.658 303.784 331.363C302.115 329.283 299.815 327.629 297.136 326.564C298.811 326.079 300.575 325.83 302.353 325.83Z" stroke="white" stroke-width="0.610309"/>
<path d="M509.065 293.94H269.316C271.003 291.786 272.412 289.486 273.519 287.079L273.519 287.079L293.964 242.553C295.297 239.657 297.652 237.158 300.727 235.391C303.802 233.625 307.45 232.677 311.188 232.678H311.188H467.2C470.939 232.677 474.586 233.625 477.661 235.391C480.736 237.158 483.091 239.657 484.424 242.553L504.88 287.079L504.88 287.079C505.896 289.28 507.158 291.396 508.647 293.397L508.649 293.399C508.786 293.58 508.923 293.76 509.065 293.94Z" stroke="white" stroke-width="0.610309"/>
<path d="M11.2253 205.867H125.48C128.328 205.867 131.052 206.815 133.052 208.49C135.051 210.163 136.161 212.42 136.161 214.76V438.876H0.544458V214.76C0.544458 212.42 1.65395 210.163 3.65292 208.49C5.6535 206.815 8.37678 205.867 11.2253 205.867Z" stroke="white" stroke-width="0.610309"/>
<path d="M100.486 208.022C99.343 207.065 97.9828 206.336 96.5049 205.867H125.48C128.329 205.867 131.052 206.815 133.053 208.49C135.052 210.163 136.161 212.42 136.161 214.76V438.876H103.813V214.76C103.813 212.22 102.608 209.798 100.486 208.022Z" stroke="white" stroke-width="0.610309"/>
<path d="M37.5918 233.46H99.1135C101.425 233.46 103.203 235.019 103.203 236.834V269.945C103.203 271.76 101.425 273.319 99.1135 273.319H37.5918C35.2803 273.319 33.5025 271.76 33.5025 269.945V236.834C33.5025 235.019 35.2803 233.46 37.5918 233.46Z" stroke="white" stroke-width="0.610309"/>
<path d="M188.914 179.485L188.914 179.485L217.805 167.39V232.235C217.805 233.598 217.158 234.919 215.983 235.903C214.807 236.888 213.201 237.448 211.518 237.448H191.743C190.06 237.448 188.455 236.888 187.278 235.903C186.103 234.919 185.457 233.598 185.457 232.235V184.139C185.457 184.139 185.457 184.139 185.457 184.139C185.457 183.183 185.775 182.241 186.382 181.419C186.99 180.596 187.865 179.924 188.914 179.485Z" stroke="white" stroke-width="0.610309"/>
<path d="M217.805 167.39V232.235C217.805 233.598 217.158 234.919 215.983 235.903C214.807 236.888 213.201 237.448 211.518 237.448H198.114C198.766 237.175 199.368 236.813 199.896 236.371C201.193 235.285 201.936 233.799 201.936 232.235V174.033L217.805 167.39Z" stroke="white" stroke-width="0.610309"/>
<path d="M68.3239 332.02C68.3339 332.011 68.3436 332.001 68.3529 331.992C68.3623 332.001 68.372 332.011 68.382 332.02C68.5387 332.172 68.7688 332.396 69.0618 332.685C69.6478 333.262 70.4854 334.098 71.4906 335.131C73.5013 337.199 76.1814 340.055 78.8607 343.214C81.5411 346.375 84.2151 349.831 86.2173 353.099C88.2268 356.378 89.5274 359.416 89.5288 361.756C89.4163 366.363 87.1518 370.763 83.1974 374.007C79.2405 377.254 73.9116 379.079 68.3529 379.079C62.7943 379.079 57.4653 377.254 53.5085 374.007C49.5541 370.763 47.2896 366.363 47.1771 361.756C47.1785 359.416 48.4791 356.378 50.4886 353.099C52.4908 349.831 55.1648 346.375 57.8452 343.214C60.5245 340.055 63.2046 337.199 65.2153 335.131C66.2205 334.098 67.058 333.262 67.6441 332.685C67.9371 332.396 68.1672 332.172 68.3239 332.02Z" stroke="white" stroke-width="0.610309"/>
<path d="M67.9001 332.433C68.0898 332.247 68.2422 332.099 68.3528 331.992C68.3622 332.001 68.3718 332.011 68.3818 332.02C68.5385 332.172 68.7686 332.396 69.0616 332.685C69.6476 333.262 70.4852 334.098 71.4904 335.131C73.5011 337.199 76.1812 340.055 78.8605 343.214C81.5408 346.375 84.2148 349.831 86.2171 353.099C88.2271 356.379 89.5278 359.418 89.5285 361.758C89.4695 366.377 87.2219 370.802 83.2557 374.054C79.2873 377.307 73.9281 379.115 68.3554 379.066H68.3525C65.8661 379.068 63.4011 378.71 61.0664 378.009C64.6403 376.661 67.7137 374.508 69.937 371.777C72.3368 368.83 73.6364 365.343 73.6598 361.762V361.76C73.6598 360.294 73.1934 358.62 72.4174 356.841C71.6399 355.059 70.5427 353.153 69.2604 351.217C66.7469 347.424 63.5067 343.498 60.5227 340.151C62.6583 337.772 64.6431 335.706 66.1068 334.222C66.8593 333.46 67.4739 332.851 67.9001 332.433Z" stroke="white" stroke-width="0.610309"/>
<mask id="path-18-inside-1_8_84" fill="white">
<path d="M554.484 293.158V286.151C554.478 281.64 552.335 277.315 548.525 274.125C544.715 270.935 539.549 269.141 534.16 269.136H520.367C515.077 269.135 509.997 270.869 506.214 273.964L492.39 243.874C490.413 239.623 486.953 235.967 482.461 233.384C477.968 230.801 472.651 229.41 467.201 229.391H311.19C305.74 229.41 300.423 230.801 295.931 233.384C291.438 235.967 287.978 239.623 286.001 243.874L272.058 274.227C268.265 271.085 263.144 269.323 257.809 269.324H244.016C238.627 269.329 233.461 271.123 229.651 274.313C225.841 277.503 223.698 281.828 223.692 286.34V293.347C223.698 297.858 225.841 302.183 229.651 305.373C233.461 308.563 238.627 310.357 244.016 310.362H248.674C245.859 315.799 244.407 321.663 244.41 327.589V393.247C244.412 396.886 245.464 400.47 247.477 403.695C249.49 406.92 252.404 409.69 255.971 411.769V430.681C255.973 432.552 256.301 434.412 256.944 436.204H144.706V258.844H155.488C156.799 258.846 158.056 259.282 158.983 260.058C159.909 260.834 160.431 261.886 160.432 262.983V396.962C160.432 402.451 163.036 407.714 167.672 411.595C172.308 415.476 178.595 417.657 185.151 417.657C191.706 417.657 197.994 415.476 202.629 411.595C207.265 407.714 209.869 402.451 209.869 396.962V248.573H211.517C215.449 248.569 219.219 247.26 222 244.932C224.78 242.604 226.344 239.448 226.348 236.156V175.116L245.517 167.092C246.493 166.691 247.365 166.133 248.082 165.448C248.8 164.764 249.348 163.968 249.696 163.105C250.044 162.243 250.184 161.331 250.109 160.423C250.034 159.514 249.745 158.628 249.259 157.813C248.773 156.999 248.099 156.273 247.276 155.678C246.453 155.083 245.497 154.63 244.464 154.346C243.432 154.061 242.342 153.95 241.257 154.02C240.173 154.09 239.116 154.339 238.147 154.753L214.423 164.683L185.108 176.955C182.639 177.98 180.562 179.563 179.113 181.526C177.664 183.489 176.901 185.752 176.91 188.06V236.156C176.914 239.448 178.478 242.604 181.259 244.932C184.039 247.26 187.809 248.569 191.741 248.573H193.389V396.962C193.389 398.792 192.521 400.546 190.976 401.84C189.431 403.133 187.335 403.86 185.15 403.86C182.964 403.86 180.869 403.133 179.323 401.84C177.778 400.546 176.91 398.792 176.91 396.962V262.983C176.904 258.228 174.645 253.669 170.628 250.307C166.612 246.945 161.167 245.053 155.487 245.048H144.706V218.68C144.7 214.413 142.672 210.322 139.068 207.304C135.464 204.287 130.577 202.589 125.48 202.585H11.2255C6.12839 202.589 1.24168 204.287 -2.36255 207.304C-5.96678 210.322 -7.99418 214.413 -8 218.68L-8 443.102C-8 444.931 -7.13191 446.686 -5.5867 447.98C-4.04149 449.273 -1.94574 450 0.239515 450H546.245C548.43 450 550.526 449.273 552.071 447.98C553.616 446.686 554.484 444.931 554.484 443.102C554.484 441.272 553.616 439.518 552.071 438.224C550.526 436.93 548.43 436.204 546.245 436.204H521.447C522.09 434.412 522.418 432.552 522.42 430.681V411.769C525.987 409.69 528.901 406.92 530.914 403.695C532.927 400.47 533.979 396.886 533.981 393.247V327.59C533.985 321.594 532.501 315.663 529.622 310.174H534.159C539.547 310.169 544.714 308.374 548.524 305.184C552.334 301.994 554.477 297.669 554.483 293.158H554.484ZM193.39 188.912L209.869 182.014V234.776H193.39V188.912ZM128.227 436.204H8.47903V218.68C8.4799 218.071 8.76954 217.486 9.28442 217.055C9.79931 216.624 10.4974 216.382 11.2255 216.381H125.48C126.208 216.382 126.906 216.624 127.421 217.055C127.936 217.486 128.226 218.071 128.227 218.68V436.204ZM301.382 248.827C302.151 247.172 303.499 245.748 305.248 244.742C306.997 243.736 309.068 243.195 311.19 243.187H467.201C469.324 243.195 471.394 243.736 473.143 244.742C474.893 245.748 476.24 247.172 477.01 248.827L496.509 291.272H281.883L301.382 248.827ZM257.809 296.566H244.016C242.997 296.565 242.019 296.225 241.298 295.622C240.578 295.018 240.172 294.2 240.171 293.347V286.34C240.172 285.486 240.578 284.668 241.298 284.065C242.019 283.461 242.997 283.122 244.016 283.121H257.809C258.828 283.122 259.806 283.461 260.527 284.065C261.247 284.668 261.653 285.486 261.654 286.34V293.347C261.653 294.2 261.247 295.018 260.527 295.622C259.806 296.225 258.828 296.565 257.809 296.566ZM299.716 430.681C299.714 432.146 299.019 433.549 297.782 434.585C296.546 435.62 294.869 436.202 293.12 436.204H279.046C277.297 436.202 275.62 435.62 274.384 434.585C273.147 433.549 272.452 432.146 272.45 430.681V415.842H299.716V430.681ZM315.222 436.204C315.865 434.412 316.193 432.552 316.195 430.681V415.842H462.196V430.682C462.198 432.553 462.525 434.413 463.168 436.205L315.222 436.204ZM323.751 402.044L333.221 393.31C334.483 392.148 336.021 391.219 337.737 390.583C339.452 389.947 341.307 389.618 343.183 389.617H435.064C436.965 389.617 438.845 389.955 440.579 390.607C442.313 391.26 443.862 392.213 445.125 393.403L454.29 402.045L323.751 402.044ZM505.941 430.681C505.94 432.146 505.244 433.549 504.008 434.585C502.771 435.62 501.094 436.202 499.345 436.204H485.271C483.522 436.202 481.846 435.62 480.609 434.585C479.372 433.549 478.677 432.146 478.675 430.681V415.842H505.941V430.681ZM517.502 393.247C517.499 395.58 516.391 397.816 514.421 399.465C512.451 401.114 509.78 402.042 506.994 402.045H476.326L457.448 384.243C454.639 381.595 451.192 379.476 447.334 378.024C443.475 376.573 439.294 375.821 435.064 375.82H343.183C339.01 375.823 334.883 376.556 331.066 377.97C327.25 379.385 323.828 381.451 321.02 384.037L301.495 402.045H271.398C268.612 402.042 265.941 401.114 263.971 399.465C262.001 397.816 260.893 395.58 260.889 393.247V327.59C260.877 320.092 264.283 312.872 270.411 307.403C271.248 306.649 272.052 305.869 272.824 305.067H505.568C506.339 305.869 507.144 306.649 507.98 307.403C514.109 312.872 517.514 320.092 517.502 327.59V393.247ZM520.367 296.378C519.348 296.377 518.37 296.038 517.649 295.434C516.929 294.831 516.523 294.012 516.522 293.159V286.151C516.523 285.298 516.929 284.48 517.649 283.876C518.37 283.273 519.348 282.933 520.367 282.932H534.16C535.179 282.933 536.157 283.273 536.878 283.876C537.599 284.48 538.004 285.298 538.005 286.151V293.158C538.004 294.011 537.599 294.83 536.878 295.433C536.157 296.037 535.179 296.376 534.16 296.377L520.367 296.378ZM68.3528 328.591C67.1813 328.591 66.0232 328.8 64.9558 329.204C63.8885 329.609 62.9365 330.199 62.1633 330.936C56.6428 336.194 38.6313 354.243 38.6313 365.68C38.7475 372.215 41.9299 378.45 47.4909 383.036C53.052 387.623 60.5452 390.195 68.3517 390.195C76.1583 390.195 83.6515 387.623 89.2125 383.036C94.7736 378.45 97.956 372.215 98.0722 365.68C98.0722 354.242 80.0617 336.194 74.5413 330.936C73.7682 330.199 72.8164 329.609 71.7492 329.205C70.6821 328.8 69.5242 328.591 68.3528 328.591ZM68.3528 376.393C64.9014 376.439 61.5693 375.336 59.0872 373.328C56.605 371.32 55.1752 368.57 55.1114 365.68C55.1114 362.429 61.2888 354.051 68.3528 346.365C75.4168 354.052 81.5932 362.429 81.5932 365.68C81.5296 368.57 80.1002 371.32 77.6182 373.328C75.1362 375.337 71.8043 376.439 68.3528 376.394V376.393ZM476.039 322.547C471.191 322.547 466.453 323.751 462.423 326.006C458.392 328.26 455.251 331.465 453.396 335.214C451.541 338.964 451.056 343.089 452.002 347.07C452.948 351.05 455.282 354.706 458.71 357.575C462.137 360.445 466.504 362.399 471.259 363.191C476.013 363.982 480.941 363.576 485.419 362.023C489.897 360.47 493.725 357.84 496.418 354.466C499.111 351.091 500.548 347.124 500.548 343.066C500.541 337.626 497.956 332.41 493.361 328.563C488.767 324.717 482.537 322.553 476.039 322.547ZM476.039 349.788C474.45 349.788 472.898 349.394 471.578 348.655C470.257 347.916 469.228 346.866 468.621 345.638C468.013 344.41 467.854 343.058 468.164 341.754C468.474 340.45 469.239 339.252 470.362 338.312C471.485 337.372 472.916 336.732 474.473 336.473C476.031 336.213 477.646 336.346 479.113 336.855C480.58 337.364 481.834 338.226 482.716 339.331C483.598 340.437 484.069 341.736 484.069 343.066C484.067 344.848 483.22 346.557 481.714 347.818C480.209 349.078 478.168 349.787 476.039 349.788ZM103.508 230.177H33.1976C31.0123 230.177 28.9166 230.904 27.3714 232.198C25.8261 233.491 24.9581 235.246 24.9581 237.076V277.545C24.9581 279.375 25.8261 281.129 27.3714 282.423C28.9166 283.716 31.0123 284.443 33.1976 284.443H103.508C105.693 284.443 107.789 283.716 109.334 282.423C110.88 281.129 111.748 279.375 111.748 277.545V237.076C111.748 235.246 110.88 233.491 109.334 232.198C107.789 230.904 105.693 230.177 103.508 230.177ZM95.2686 270.647H41.4371V243.974H95.2686V270.647ZM302.353 322.548C297.505 322.548 292.767 323.751 288.737 326.006C284.706 328.261 281.565 331.465 279.71 335.215C277.855 338.964 277.369 343.09 278.315 347.07C279.261 351.05 281.595 354.706 285.023 357.576C288.45 360.446 292.817 362.4 297.571 363.192C302.326 363.983 307.254 363.577 311.732 362.024C316.21 360.471 320.038 357.841 322.731 354.467C325.424 351.092 326.862 347.125 326.862 343.067C326.854 337.627 324.27 332.411 319.675 328.564C315.08 324.717 308.851 322.554 302.353 322.548ZM302.353 349.789C300.765 349.789 299.212 349.395 297.892 348.656C296.571 347.918 295.542 346.868 294.934 345.639C294.327 344.411 294.168 343.059 294.477 341.755C294.787 340.451 295.552 339.253 296.675 338.313C297.798 337.373 299.229 336.733 300.786 336.474C302.344 336.214 303.958 336.347 305.426 336.856C306.893 337.365 308.147 338.227 309.029 339.332C309.912 340.438 310.383 341.737 310.383 343.067C310.38 344.849 309.533 346.558 308.028 347.819C306.522 349.079 304.482 349.788 302.353 349.789Z"/>
</mask>
<path d="M554.484 293.158V286.151C554.478 281.64 552.335 277.315 548.525 274.125C544.715 270.935 539.549 269.141 534.16 269.136H520.367C515.077 269.135 509.997 270.869 506.214 273.964L492.39 243.874C490.413 239.623 486.953 235.967 482.461 233.384C477.968 230.801 472.651 229.41 467.201 229.391H311.19C305.74 229.41 300.423 230.801 295.931 233.384C291.438 235.967 287.978 239.623 286.001 243.874L272.058 274.227C268.265 271.085 263.144 269.323 257.809 269.324H244.016C238.627 269.329 233.461 271.123 229.651 274.313C225.841 277.503 223.698 281.828 223.692 286.34V293.347C223.698 297.858 225.841 302.183 229.651 305.373C233.461 308.563 238.627 310.357 244.016 310.362H248.674C245.859 315.799 244.407 321.663 244.41 327.589V393.247C244.412 396.886 245.464 400.47 247.477 403.695C249.49 406.92 252.404 409.69 255.971 411.769V430.681C255.973 432.552 256.301 434.412 256.944 436.204H144.706V258.844H155.488C156.799 258.846 158.056 259.282 158.983 260.058C159.909 260.834 160.431 261.886 160.432 262.983V396.962C160.432 402.451 163.036 407.714 167.672 411.595C172.308 415.476 178.595 417.657 185.151 417.657C191.706 417.657 197.994 415.476 202.629 411.595C207.265 407.714 209.869 402.451 209.869 396.962V248.573H211.517C215.449 248.569 219.219 247.26 222 244.932C224.78 242.604 226.344 239.448 226.348 236.156V175.116L245.517 167.092C246.493 166.691 247.365 166.133 248.082 165.448C248.8 164.764 249.348 163.968 249.696 163.105C250.044 162.243 250.184 161.331 250.109 160.423C250.034 159.514 249.745 158.628 249.259 157.813C248.773 156.999 248.099 156.273 247.276 155.678C246.453 155.083 245.497 154.63 244.464 154.346C243.432 154.061 242.342 153.95 241.257 154.02C240.173 154.09 239.116 154.339 238.147 154.753L214.423 164.683L185.108 176.955C182.639 177.98 180.562 179.563 179.113 181.526C177.664 183.489 176.901 185.752 176.91 188.06V236.156C176.914 239.448 178.478 242.604 181.259 244.932C184.039 247.26 187.809 248.569 191.741 248.573H193.389V396.962C193.389 398.792 192.521 400.546 190.976 401.84C189.431 403.133 187.335 403.86 185.15 403.86C182.964 403.86 180.869 403.133 179.323 401.84C177.778 400.546 176.91 398.792 176.91 396.962V262.983C176.904 258.228 174.645 253.669 170.628 250.307C166.612 246.945 161.167 245.053 155.487 245.048H144.706V218.68C144.7 214.413 142.672 210.322 139.068 207.304C135.464 204.287 130.577 202.589 125.48 202.585H11.2255C6.12839 202.589 1.24168 204.287 -2.36255 207.304C-5.96678 210.322 -7.99418 214.413 -8 218.68L-8 443.102C-8 444.931 -7.13191 446.686 -5.5867 447.98C-4.04149 449.273 -1.94574 450 0.239515 450H546.245C548.43 450 550.526 449.273 552.071 447.98C553.616 446.686 554.484 444.931 554.484 443.102C554.484 441.272 553.616 439.518 552.071 438.224C550.526 436.93 548.43 436.204 546.245 436.204H521.447C522.09 434.412 522.418 432.552 522.42 430.681V411.769C525.987 409.69 528.901 406.92 530.914 403.695C532.927 400.47 533.979 396.886 533.981 393.247V327.59C533.985 321.594 532.501 315.663 529.622 310.174H534.159C539.547 310.169 544.714 308.374 548.524 305.184C552.334 301.994 554.477 297.669 554.483 293.158H554.484ZM193.39 188.912L209.869 182.014V234.776H193.39V188.912ZM128.227 436.204H8.47903V218.68C8.4799 218.071 8.76954 217.486 9.28442 217.055C9.79931 216.624 10.4974 216.382 11.2255 216.381H125.48C126.208 216.382 126.906 216.624 127.421 217.055C127.936 217.486 128.226 218.071 128.227 218.68V436.204ZM301.382 248.827C302.151 247.172 303.499 245.748 305.248 244.742C306.997 243.736 309.068 243.195 311.19 243.187H467.201C469.324 243.195 471.394 243.736 473.143 244.742C474.893 245.748 476.24 247.172 477.01 248.827L496.509 291.272H281.883L301.382 248.827ZM257.809 296.566H244.016C242.997 296.565 242.019 296.225 241.298 295.622C240.578 295.018 240.172 294.2 240.171 293.347V286.34C240.172 285.486 240.578 284.668 241.298 284.065C242.019 283.461 242.997 283.122 244.016 283.121H257.809C258.828 283.122 259.806 283.461 260.527 284.065C261.247 284.668 261.653 285.486 261.654 286.34V293.347C261.653 294.2 261.247 295.018 260.527 295.622C259.806 296.225 258.828 296.565 257.809 296.566ZM299.716 430.681C299.714 432.146 299.019 433.549 297.782 434.585C296.546 435.62 294.869 436.202 293.12 436.204H279.046C277.297 436.202 275.62 435.62 274.384 434.585C273.147 433.549 272.452 432.146 272.45 430.681V415.842H299.716V430.681ZM315.222 436.204C315.865 434.412 316.193 432.552 316.195 430.681V415.842H462.196V430.682C462.198 432.553 462.525 434.413 463.168 436.205L315.222 436.204ZM323.751 402.044L333.221 393.31C334.483 392.148 336.021 391.219 337.737 390.583C339.452 389.947 341.307 389.618 343.183 389.617H435.064C436.965 389.617 438.845 389.955 440.579 390.607C442.313 391.26 443.862 392.213 445.125 393.403L454.29 402.045L323.751 402.044ZM505.941 430.681C505.94 432.146 505.244 433.549 504.008 434.585C502.771 435.62 501.094 436.202 499.345 436.204H485.271C483.522 436.202 481.846 435.62 480.609 434.585C479.372 433.549 478.677 432.146 478.675 430.681V415.842H505.941V430.681ZM517.502 393.247C517.499 395.58 516.391 397.816 514.421 399.465C512.451 401.114 509.78 402.042 506.994 402.045H476.326L457.448 384.243C454.639 381.595 451.192 379.476 447.334 378.024C443.475 376.573 439.294 375.821 435.064 375.82H343.183C339.01 375.823 334.883 376.556 331.066 377.97C327.25 379.385 323.828 381.451 321.02 384.037L301.495 402.045H271.398C268.612 402.042 265.941 401.114 263.971 399.465C262.001 397.816 260.893 395.58 260.889 393.247V327.59C260.877 320.092 264.283 312.872 270.411 307.403C271.248 306.649 272.052 305.869 272.824 305.067H505.568C506.339 305.869 507.144 306.649 507.98 307.403C514.109 312.872 517.514 320.092 517.502 327.59V393.247ZM520.367 296.378C519.348 296.377 518.37 296.038 517.649 295.434C516.929 294.831 516.523 294.012 516.522 293.159V286.151C516.523 285.298 516.929 284.48 517.649 283.876C518.37 283.273 519.348 282.933 520.367 282.932H534.16C535.179 282.933 536.157 283.273 536.878 283.876C537.599 284.48 538.004 285.298 538.005 286.151V293.158C538.004 294.011 537.599 294.83 536.878 295.433C536.157 296.037 535.179 296.376 534.16 296.377L520.367 296.378ZM68.3528 328.591C67.1813 328.591 66.0232 328.8 64.9558 329.204C63.8885 329.609 62.9365 330.199 62.1633 330.936C56.6428 336.194 38.6313 354.243 38.6313 365.68C38.7475 372.215 41.9299 378.45 47.4909 383.036C53.052 387.623 60.5452 390.195 68.3517 390.195C76.1583 390.195 83.6515 387.623 89.2125 383.036C94.7736 378.45 97.956 372.215 98.0722 365.68C98.0722 354.242 80.0617 336.194 74.5413 330.936C73.7682 330.199 72.8164 329.609 71.7492 329.205C70.6821 328.8 69.5242 328.591 68.3528 328.591ZM68.3528 376.393C64.9014 376.439 61.5693 375.336 59.0872 373.328C56.605 371.32 55.1752 368.57 55.1114 365.68C55.1114 362.429 61.2888 354.051 68.3528 346.365C75.4168 354.052 81.5932 362.429 81.5932 365.68C81.5296 368.57 80.1002 371.32 77.6182 373.328C75.1362 375.337 71.8043 376.439 68.3528 376.394V376.393ZM476.039 322.547C471.191 322.547 466.453 323.751 462.423 326.006C458.392 328.26 455.251 331.465 453.396 335.214C451.541 338.964 451.056 343.089 452.002 347.07C452.948 351.05 455.282 354.706 458.71 357.575C462.137 360.445 466.504 362.399 471.259 363.191C476.013 363.982 480.941 363.576 485.419 362.023C489.897 360.47 493.725 357.84 496.418 354.466C499.111 351.091 500.548 347.124 500.548 343.066C500.541 337.626 497.956 332.41 493.361 328.563C488.767 324.717 482.537 322.553 476.039 322.547ZM476.039 349.788C474.45 349.788 472.898 349.394 471.578 348.655C470.257 347.916 469.228 346.866 468.621 345.638C468.013 344.41 467.854 343.058 468.164 341.754C468.474 340.45 469.239 339.252 470.362 338.312C471.485 337.372 472.916 336.732 474.473 336.473C476.031 336.213 477.646 336.346 479.113 336.855C480.58 337.364 481.834 338.226 482.716 339.331C483.598 340.437 484.069 341.736 484.069 343.066C484.067 344.848 483.22 346.557 481.714 347.818C480.209 349.078 478.168 349.787 476.039 349.788ZM103.508 230.177H33.1976C31.0123 230.177 28.9166 230.904 27.3714 232.198C25.8261 233.491 24.9581 235.246 24.9581 237.076V277.545C24.9581 279.375 25.8261 281.129 27.3714 282.423C28.9166 283.716 31.0123 284.443 33.1976 284.443H103.508C105.693 284.443 107.789 283.716 109.334 282.423C110.88 281.129 111.748 279.375 111.748 277.545V237.076C111.748 235.246 110.88 233.491 109.334 232.198C107.789 230.904 105.693 230.177 103.508 230.177ZM95.2686 270.647H41.4371V243.974H95.2686V270.647ZM302.353 322.548C297.505 322.548 292.767 323.751 288.737 326.006C284.706 328.261 281.565 331.465 279.71 335.215C277.855 338.964 277.369 343.09 278.315 347.07C279.261 351.05 281.595 354.706 285.023 357.576C288.45 360.446 292.817 362.4 297.571 363.192C302.326 363.983 307.254 363.577 311.732 362.024C316.21 360.471 320.038 357.841 322.731 354.467C325.424 351.092 326.862 347.125 326.862 343.067C326.854 337.627 324.27 332.411 319.675 328.564C315.08 324.717 308.851 322.554 302.353 322.548ZM302.353 349.789C300.765 349.789 299.212 349.395 297.892 348.656C296.571 347.918 295.542 346.868 294.934 345.639C294.327 344.411 294.168 343.059 294.477 341.755C294.787 340.451 295.552 339.253 296.675 338.313C297.798 337.373 299.229 336.733 300.786 336.474C302.344 336.214 303.958 336.347 305.426 336.856C306.893 337.365 308.147 338.227 309.029 339.332C309.912 340.438 310.383 341.737 310.383 343.067C310.38 344.849 309.533 346.558 308.028 347.819C306.522 349.079 304.482 349.788 302.353 349.789Z" stroke="white" stroke-width="1.22062" mask="url(#path-18-inside-1_8_84)"/>
</g>
<defs>
<linearGradient id="paint0_linear_8_84" x1="564.375" y1="1043.5" x2="147.584" y2="-55.9479" gradientUnits="userSpaceOnUse">
<stop stop-color="#EA1A0A" stop-opacity="0.7"/>
<stop offset="1" stop-color="#F08719" stop-opacity="0.9"/>
</linearGradient>
<clipPath id="clip0_8_84">
<rect width="430" height="800" fill="white"/>
</clipPath>
</defs>
</svg>
