<svg width="68" height="74" viewBox="0 0 68 74" fill="none" xmlns="http://www.w3.org/2000/svg">
<path d="M0 3C0 1.34315 1.34315 0 3 0H65C66.6569 0 68 1.34315 68 3V51H0V3Z" fill="url(#paint0_linear_8_41)"/>
<rect y="50" width="68" height="24" fill="#F18238"/>
<path d="M19.9248 66V58.5426H22.5829C23.1631 58.5426 23.6438 58.6482 24.0249 58.8594C24.406 59.0706 24.6912 59.3595 24.8806 59.726C25.0699 60.0902 25.1646 60.5004 25.1646 60.9568C25.1646 61.4156 25.0687 61.8283 24.8769 62.1948C24.6876 62.559 24.4012 62.8478 24.0176 63.0615C23.6365 63.2727 23.157 63.3783 22.5793 63.3783H20.7514V62.4242H22.4773C22.8439 62.4242 23.1413 62.3611 23.3695 62.2349C23.5976 62.1062 23.7651 61.9315 23.872 61.7106C23.9788 61.4896 24.0322 61.2384 24.0322 60.9568C24.0322 60.6752 23.9788 60.4252 23.872 60.2067C23.7651 59.9882 23.5964 59.8171 23.3658 59.6933C23.1376 59.5695 22.8366 59.5076 22.4628 59.5076H21.0499V66H19.9248ZM28.7367 66.1129C28.1857 66.1129 27.7111 65.9951 27.313 65.7597C26.9173 65.5218 26.6114 65.188 26.3954 64.7583C26.1817 64.3262 26.0749 63.8201 26.0749 63.2399C26.0749 62.667 26.1817 62.1621 26.3954 61.7251C26.6114 61.2882 26.9124 60.9471 27.2984 60.7019C27.6868 60.4567 28.1408 60.3341 28.6603 60.3341C28.9758 60.3341 29.2817 60.3863 29.5779 60.4907C29.874 60.5951 30.1398 60.759 30.3753 60.9823C30.6108 61.2056 30.7965 61.4957 30.9324 61.8526C31.0684 62.207 31.1363 62.6379 31.1363 63.1452V63.5312H26.6903V62.7155H30.0694C30.0694 62.4291 30.0112 62.1754 29.8947 61.9545C29.7781 61.7312 29.6143 61.5552 29.4031 61.4265C29.1943 61.2979 28.9491 61.2335 28.6675 61.2335C28.3617 61.2335 28.0946 61.3088 27.8665 61.4593C27.6407 61.6074 27.4659 61.8016 27.3421 62.0419C27.2207 62.2798 27.16 62.5383 27.16 62.8175V63.4547C27.16 63.8286 27.2256 64.1466 27.3567 64.4088C27.4902 64.6709 27.6759 64.8712 27.9138 65.0096C28.1517 65.1455 28.4296 65.2135 28.7477 65.2135C28.954 65.2135 29.1421 65.1843 29.3121 65.1261C29.482 65.0654 29.6288 64.9756 29.7526 64.8566C29.8765 64.7377 29.9711 64.5908 30.0367 64.416L31.0672 64.6017C30.9846 64.9052 30.8365 65.171 30.6229 65.3992C30.4117 65.6249 30.1459 65.8009 29.8255 65.9272C29.5075 66.051 29.1446 66.1129 28.7367 66.1129ZM34.9552 60.407V61.2809H31.9001V60.407H34.9552ZM32.7194 59.067H33.8081V64.3578C33.8081 64.569 33.8397 64.728 33.9028 64.8348C33.9659 64.9392 34.0473 65.0108 34.1468 65.0496C34.2487 65.086 34.3592 65.1042 34.4781 65.1042C34.5655 65.1042 34.642 65.0982 34.7075 65.086C34.7731 65.0739 34.8241 65.0642 34.8605 65.0569L35.0571 65.9563C34.994 65.9806 34.9042 66.0049 34.7877 66.0291C34.6711 66.0558 34.5255 66.0704 34.3507 66.0728C34.0642 66.0777 33.7972 66.0267 33.5496 65.9199C33.302 65.8131 33.1017 65.648 32.9488 65.4247C32.7959 65.2013 32.7194 64.921 32.7194 64.5835V59.067ZM36.1595 66V60.407H37.2118V61.2954H37.2701C37.3721 60.9944 37.5517 60.7577 37.809 60.5854C38.0688 60.4106 38.3625 60.3232 38.6902 60.3232C38.7582 60.3232 38.8383 60.3256 38.9305 60.3305C39.0252 60.3354 39.0993 60.3414 39.1527 60.3487V61.3901C39.109 61.378 39.0313 61.3646 38.9196 61.3501C38.808 61.3331 38.6963 61.3246 38.5846 61.3246C38.3273 61.3246 38.0979 61.3792 37.8964 61.4884C37.6974 61.5952 37.5396 61.7445 37.423 61.9363C37.3065 62.1257 37.2483 62.3417 37.2483 62.5845V66H36.1595ZM42.2505 66.1129C41.7261 66.1129 41.2686 65.9927 40.8777 65.7524C40.4869 65.5121 40.1835 65.1759 39.9674 64.7438C39.7514 64.3117 39.6433 63.8067 39.6433 63.229C39.6433 62.6488 39.7514 62.1414 39.9674 61.7069C40.1835 61.2724 40.4869 60.935 40.8777 60.6946C41.2686 60.4543 41.7261 60.3341 42.2505 60.3341C42.7748 60.3341 43.2324 60.4543 43.6233 60.6946C44.0141 60.935 44.3175 61.2724 44.5336 61.7069C44.7496 62.1414 44.8577 62.6488 44.8577 63.229C44.8577 63.8067 44.7496 64.3117 44.5336 64.7438C44.3175 65.1759 44.0141 65.5121 43.6233 65.7524C43.2324 65.9927 42.7748 66.1129 42.2505 66.1129ZM42.2541 65.1989C42.594 65.1989 42.8756 65.1091 43.0989 64.9295C43.3223 64.7498 43.4873 64.5107 43.5941 64.2121C43.7034 63.9135 43.758 63.5846 43.758 63.2253C43.758 62.8685 43.7034 62.5408 43.5941 62.2422C43.4873 61.9412 43.3223 61.6996 43.0989 61.5176C42.8756 61.3355 42.594 61.2445 42.2541 61.2445C41.9119 61.2445 41.6278 61.3355 41.4021 61.5176C41.1787 61.6996 41.0125 61.9412 40.9032 62.2422C40.7964 62.5408 40.743 62.8685 40.743 63.2253C40.743 63.5846 40.7964 63.9135 40.9032 64.2121C41.0125 64.5107 41.1787 64.7498 41.4021 64.9295C41.6278 65.1091 41.9119 65.1989 42.2541 65.1989ZM47.1617 58.5426V66H46.0729V58.5426H47.1617Z" fill="white"/>
<path d="M26.908 15.047L20.5113 12.388C20.4537 12.364 20.3923 12.3506 20.3301 12.3484L9.38043 12.0002C9.33105 11.9986 9.28186 12.007 9.23577 12.0248C9.18969 12.0426 9.14766 12.0695 9.11217 12.1039C9.07668 12.1383 9.04847 12.1794 9.0292 12.2249C9.00993 12.2704 9 12.3193 9 12.3687V14.6798C9 14.7766 9.0381 14.8696 9.10606 14.9385C9.17402 15.0075 9.26639 15.047 9.36322 15.0484L18.6624 15.187C18.7208 15.188 18.7786 15.1988 18.8335 15.219L25.6885 17.7436L26.908 15.047ZM43.9967 42.8233L39.9256 36.1509L43.8387 34.4701L47.6503 40.7171C47.676 40.7592 47.693 40.8061 47.7003 40.8549C47.7075 40.9037 47.7049 40.9535 47.6926 41.0013C47.6802 41.0491 47.6584 41.0939 47.6284 41.1331C47.5984 41.1723 47.5609 41.2051 47.518 41.2295L44.4939 42.9517C44.4106 42.9991 44.3121 43.0123 44.2193 42.9883C44.1265 42.9643 44.0466 42.9052 43.9967 42.8233Z" fill="#D9D9D9"/>
<path d="M47.7785 32.2322L41.5811 22.4876L42.2619 21.9309C42.4666 21.7635 42.6052 21.5289 42.653 21.2689C42.7009 21.0089 42.6549 20.7404 42.5232 20.5111L41.2884 18.3609C41.1559 18.1304 40.9456 17.9546 40.6952 17.8653C40.4448 17.776 40.1708 17.7789 39.9223 17.8735L39.0301 18.2133L34.7359 14.3779C34.6374 14.29 34.5173 14.2298 34.3879 14.2036C34.2586 14.1773 34.1245 14.1859 33.9996 14.2285L31.5534 15.0621C31.3993 15.1146 31.2322 15.1152 31.0778 15.0637L28.154 14.0895C27.9792 14.0312 27.7891 14.0398 27.6203 14.1136C27.4515 14.1874 27.3161 14.3211 27.2401 14.4889L25.4641 18.4163C25.3897 18.5808 25.3776 18.7668 25.4302 18.9395C25.4828 19.1122 25.5964 19.26 25.7498 19.3551L26.849 20.0371C26.9653 20.1092 27.0595 20.2121 27.1211 20.3343C27.1828 20.4566 27.2095 20.5935 27.1984 20.7299L26.9741 23.4758C26.961 23.6361 27.0003 23.7964 27.0859 23.9325L29.5198 27.8017L35.9356 24.9513C36.4357 24.7291 37 24.6982 37.5214 24.8645C38.0427 25.0307 38.485 25.3825 38.7641 25.8532L43.7093 34.2089" fill="#E9FFEE"/>
<path d="M28.3124 17.8291C28.4669 17.8805 28.6339 17.88 28.788 17.8274L31.2342 16.9939C31.3592 16.9513 31.4932 16.9427 31.6226 16.9689C31.7519 16.9952 31.872 17.0554 31.9705 17.1433L36.2647 20.9786L37.1569 20.6389C37.4054 20.5442 37.6794 20.5413 37.9298 20.6307C38.1802 20.72 38.3905 20.8957 38.523 21.1263L39.7579 23.2765C39.8895 23.5057 39.9355 23.7743 39.8877 24.0343C39.8398 24.2943 39.7012 24.5289 39.4965 24.6962L38.8158 25.253L44.3222 33.9112L47.7785 32.2322L41.5811 22.4876L42.2619 21.9309C42.4666 21.7635 42.6052 21.5289 42.653 21.2689C42.7009 21.0089 42.6549 20.7404 42.5232 20.5111L41.2884 18.3609C41.1559 18.1304 40.9456 17.9546 40.6952 17.8653C40.4448 17.776 40.1707 17.7789 39.9223 17.8735L39.0301 18.2133L34.7358 14.3779C34.6374 14.29 34.5173 14.2298 34.3879 14.2036C34.2586 14.1773 34.1245 14.1859 33.9996 14.2285L31.5534 15.0621C31.3993 15.1146 31.2322 15.1152 31.0777 15.0637L28.1539 14.0895C27.9792 14.0312 27.7891 14.0398 27.6203 14.1136C27.4515 14.1874 27.3161 14.3211 27.2401 14.4889L26.0678 17.0812L28.3124 17.8291Z" fill="#E6E6E6"/>
<path d="M36.5166 38.1472C36.0089 38.1475 35.5099 38.0156 35.0686 37.7646C34.6272 37.5136 34.2589 37.152 33.9996 36.7155L28.5404 27.5217C28.4941 27.4437 28.4636 27.3572 28.4506 27.2674C28.4377 27.1775 28.4425 27.086 28.465 26.998C28.4874 26.91 28.5269 26.8273 28.5813 26.7546C28.6357 26.6819 28.7039 26.6207 28.7819 26.5743C28.86 26.528 28.9465 26.4974 29.0363 26.4845C29.1262 26.4715 29.2177 26.4764 29.3057 26.4988C29.3937 26.5213 29.4764 26.5608 29.5491 26.6152C29.6218 26.6696 29.683 26.7378 29.7294 26.8158L35.1886 36.0096C35.3806 36.3326 35.6839 36.5745 36.0416 36.6898C36.3993 36.805 36.7867 36.7858 37.1312 36.6357L47.4764 31.6103C47.5581 31.5706 47.6468 31.5474 47.7374 31.542C47.828 31.5366 47.9188 31.5491 48.0046 31.5788C48.0904 31.6085 48.1695 31.6548 48.2374 31.7151C48.3053 31.7753 48.3607 31.8484 48.4004 31.93C48.4401 32.0117 48.4633 32.1004 48.4687 32.191C48.4741 32.2816 48.4616 32.3724 48.4319 32.4582C48.4022 32.544 48.3559 32.6231 48.2956 32.691C48.2353 32.7589 48.1623 32.8143 48.0806 32.854L37.7238 37.885C37.7167 37.8884 37.7096 37.8918 37.7024 37.8949C37.3292 38.0612 36.9252 38.1472 36.5166 38.1472Z" fill="#C4C4C4"/>
<path d="M37.6207 37.8664C37.457 37.8661 37.2986 37.8078 37.1738 37.7017C37.049 37.5956 36.9659 37.4486 36.9394 37.287L35.7007 29.7546C35.642 29.3845 35.4516 29.0479 35.1646 28.8069C34.8776 28.5659 34.5132 28.4366 34.1385 28.4427L29.5274 28.4931H29.5196C29.3369 28.4931 29.1617 28.4207 29.0321 28.2919C28.9026 28.163 28.8294 27.9881 28.8284 27.8054C28.8274 27.6227 28.8988 27.4471 29.0269 27.3169C29.1551 27.1866 29.3296 27.1124 29.5122 27.1104L34.1233 27.06C34.1344 27.0599 34.1457 27.0598 34.1567 27.0598C34.8566 27.0568 35.5344 27.3041 36.0678 27.7572C36.6012 28.2103 36.9549 28.8392 37.0651 29.5303L38.3037 37.0629C38.3199 37.1619 38.3143 37.2632 38.2874 37.3598C38.2605 37.4565 38.213 37.5461 38.148 37.6225C38.083 37.699 38.0022 37.7604 37.9112 37.8025C37.8202 37.8446 37.721 37.8664 37.6207 37.8664Z" fill="#C4C4C4"/>
<defs>
<linearGradient id="paint0_linear_8_41" x1="89.25" y1="66.5231" x2="77.2791" y2="-11.8099" gradientUnits="userSpaceOnUse">
<stop stop-color="#EA1A0A" stop-opacity="0.7"/>
<stop offset="1" stop-color="#F08719" stop-opacity="0.9"/>
</linearGradient>
</defs>
</svg>
