<svg width="428" height="800" viewBox="0 0 428 800" fill="none" xmlns="http://www.w3.org/2000/svg">
<g clip-path="url(#clip0_8_74)">
<rect width="428" height="800" transform="matrix(1 0 0 -1 0 800)" fill="white"/>
<rect width="438.699" height="800" fill="url(#paint0_linear_8_74)"/>
<path d="M456.294 353.088C456.288 353.007 456.284 352.927 456.273 352.847C456.265 352.777 456.25 352.708 456.238 352.639C456.224 352.564 456.213 352.489 456.195 352.414C456.177 352.336 456.151 352.261 456.128 352.184C456.108 352.118 456.091 352.052 456.067 351.986C456.037 351.902 456 351.82 455.965 351.736C455.94 351.679 455.918 351.621 455.89 351.565C455.851 351.482 455.804 351.401 455.758 351.32C455.73 351.271 455.706 351.22 455.676 351.169L455.661 351.148C455.623 351.087 455.579 351.03 455.539 350.971C455.486 350.895 455.435 350.818 455.378 350.745L455.367 350.73L408.847 292.048L410.29 290.888C412.62 289.023 414.124 286.472 414.53 283.693C414.936 280.913 414.218 278.087 412.505 275.722L402.636 262.009C400.931 259.62 398.328 257.849 395.3 257.019C392.273 256.188 389.021 256.353 386.136 257.483L382.552 258.871L352.036 236.756C350.579 235.702 348.839 235.01 346.993 234.75C345.146 234.491 343.26 234.673 341.526 235.279L323.933 241.438C323.854 241.466 323.766 241.469 323.684 241.449L301.897 235.918C299.42 235.285 296.776 235.483 294.467 236.476C292.158 237.468 290.344 239.186 289.369 241.303L245.623 227.088C244.614 226.76 243.548 226.597 242.478 226.607L159.366 227.517C158.686 227.521 158.016 227.649 157.395 227.892C156.775 228.136 156.217 228.491 155.757 228.934C155.295 229.375 154.937 229.895 154.705 230.464C154.473 231.032 154.372 231.637 154.407 232.243L155.582 252.233C155.651 253.421 156.242 254.541 157.225 255.35C158.208 256.16 159.505 256.594 160.835 256.559L231.428 254.722L277.715 267.875C276.858 269.977 276.872 272.289 277.753 274.395C278.635 276.502 280.326 278.265 282.522 279.368L290.834 283.514C290.896 283.544 290.948 283.59 290.984 283.646C291.019 283.701 291.037 283.764 291.035 283.828L290.448 301.858C290.387 303.889 291.059 305.889 292.365 307.562L310.34 330.474L352.053 386.633C354.967 390.559 359.384 393.404 364.466 394.63C369.548 395.856 374.942 395.377 379.623 393.283C379.675 393.261 379.726 393.237 379.777 393.212L380.548 392.837C381.003 392.688 381.431 392.48 381.818 392.221L393.264 386.66L422.173 424.593C422.932 425.59 424.102 426.28 425.423 426.511C426.745 426.742 428.111 426.495 429.22 425.825C430.33 425.155 431.092 424.116 431.34 422.938C431.587 421.759 431.3 420.537 430.54 419.541L402.18 382.329L420.451 373.453L448.041 409.656C448.808 410.637 449.974 411.312 451.287 411.534C452.6 411.757 453.954 411.509 455.055 410.844C456.156 410.179 456.916 409.151 457.169 407.983C457.423 406.814 457.149 405.6 456.408 404.604L429.368 369.122L453.689 357.307L453.713 357.294C453.781 357.261 453.846 357.222 453.913 357.186C453.996 357.139 454.082 357.094 454.161 357.045L454.178 357.036C454.214 357.012 454.247 356.987 454.281 356.964C454.379 356.898 454.477 356.833 454.569 356.763C454.608 356.733 454.643 356.699 454.681 356.669C454.766 356.599 454.852 356.529 454.931 356.455C454.974 356.414 455.014 356.37 455.055 356.328C455.122 356.26 455.189 356.192 455.251 356.122C455.298 356.068 455.339 356.012 455.383 355.957C455.432 355.893 455.484 355.831 455.53 355.766C455.575 355.702 455.615 355.636 455.657 355.569C455.694 355.509 455.734 355.45 455.768 355.388C455.808 355.319 455.842 355.247 455.878 355.174C455.907 355.113 455.938 355.053 455.966 354.991C455.997 354.919 456.022 354.846 456.049 354.774C456.073 354.708 456.099 354.644 456.119 354.578C456.142 354.507 456.158 354.437 456.176 354.366C456.194 354.295 456.214 354.224 456.228 354.152C456.241 354.085 456.25 354.017 456.259 353.95C456.271 353.873 456.283 353.796 456.29 353.719C456.296 353.654 456.296 353.589 456.299 353.524C456.302 353.444 456.307 353.363 456.305 353.282C456.304 353.218 456.297 353.153 456.294 353.088ZM281.401 259.443L234.224 246.035C233.268 245.764 232.27 245.638 231.27 245.663L165.446 247.378L164.807 236.514L242.442 235.664L285.67 249.712L281.401 259.443ZM360.489 381.672L324.853 333.693L349.891 332.462C352.633 332.314 355.351 333.055 357.546 334.549C359.74 336.044 361.264 338.191 361.836 340.596L372.914 385.891C370.62 386.441 368.184 386.329 365.954 385.571C363.723 384.814 361.811 383.449 360.489 381.672ZM382.241 381.67L371.742 338.735C370.669 334.244 367.837 330.231 363.757 327.42C359.676 324.61 354.617 323.187 349.493 323.409L349.249 323.419L340.011 323.873L364.008 313.153C366.478 312.05 369.322 311.798 372.003 312.444C374.683 313.091 377.012 314.592 378.55 316.661L414.928 365.792L382.241 381.67ZM423.833 361.465L386.991 311.707C384.076 307.78 379.658 304.933 374.575 303.705C369.491 302.478 364.096 302.955 359.412 305.047L317.486 323.775L316.977 323.089C316.783 322.829 316.561 322.588 316.313 322.368L300.654 302.409C300.606 302.347 300.581 302.274 300.584 302.199L301.171 284.166C301.232 282.437 300.754 280.722 299.792 279.213C298.83 277.703 297.421 276.458 295.721 275.615L287.409 271.471C287.327 271.429 287.265 271.363 287.233 271.284C287.201 271.206 287.201 271.119 287.235 271.042L298.731 244.833C298.767 244.753 298.834 244.687 298.921 244.649C299.007 244.611 299.106 244.603 299.2 244.627L320.986 250.158C323.206 250.717 325.563 250.617 327.702 249.874L345.295 243.715C345.36 243.692 345.43 243.685 345.499 243.694C345.567 243.704 345.632 243.73 345.686 243.769L378.608 267.626C379.332 268.151 380.203 268.489 381.124 268.604C382.045 268.718 382.982 268.605 383.832 268.275L390.237 265.796C390.915 265.529 391.681 265.49 392.393 265.685C393.106 265.88 393.718 266.297 394.119 266.86L403.989 280.573C404.392 281.129 404.56 281.793 404.465 282.446C404.369 283.099 404.016 283.698 403.468 284.136L398.696 287.976C397.778 288.714 397.199 289.729 397.066 290.83C396.934 291.93 397.258 293.039 397.978 293.946L443.811 351.761L423.833 361.465Z" fill="#515151" fill-opacity="0.8"/>
<path d="M183.419 336.768C182.781 351.213 170.801 361.449 156.831 359.884C142.801 358.313 131.765 345.408 132.404 330.917C132.549 327.635 134.264 323.214 137.139 318.169C139.961 313.216 143.693 308.012 147.454 303.243C151.206 298.483 154.943 294.21 157.746 291.125C158.53 290.261 159.24 289.491 159.856 288.831C160.42 289.638 161.073 290.584 161.795 291.646C164.301 295.329 167.628 300.396 170.928 305.95C174.235 311.516 177.478 317.509 179.841 323.052C182.249 328.701 183.564 333.477 183.419 336.768ZM216.406 413.394C215.948 423.762 207.364 431.058 197.403 429.943C187.381 428.82 179.449 419.584 179.909 409.168C180.009 406.905 181.212 403.734 183.346 399.99C185.426 396.338 188.187 392.487 190.982 388.942C193.768 385.408 196.545 382.233 198.629 379.939C198.951 379.584 199.257 379.25 199.543 378.94C199.813 379.332 200.103 379.755 200.41 380.206C202.273 382.945 204.747 386.711 207.198 390.837C209.656 394.974 212.056 399.411 213.799 403.501C215.588 407.696 216.506 411.121 216.406 413.394Z" stroke="#434242" stroke-opacity="0.8" stroke-width="6.14747"/>
<path d="M0 508C0 508 84.0681 635.532 175.833 649.104C272.867 663.456 310.658 583.083 403.333 554.06C478.199 530.614 600 508 600 508V837H0V508Z" fill="white"/>
</g>
<defs>
<linearGradient id="paint0_linear_8_74" x1="575.792" y1="1043.5" x2="165.24" y2="-61.3989" gradientUnits="userSpaceOnUse">
<stop stop-color="#EA1A0A" stop-opacity="0.6"/>
<stop offset="1" stop-color="#F08719" stop-opacity="0.9"/>
</linearGradient>
<clipPath id="clip0_8_74">
<rect width="428" height="800" fill="white" transform="matrix(1 0 0 -1 0 800)"/>
</clipPath>
</defs>
</svg>
